<?xml version="1.0" encoding="utf-8"?>
<!-- Generator: Adobe Illustrator 16.0.0, SVG Export Plug-In . SVG Version: 6.00 Build 0)  -->
<!DOCTYPE svg PUBLIC "-//W3C//DTD SVG 1.1//EN" "http://www.w3.org/Graphics/SVG/1.1/DTD/svg11.dtd">
<svg version="1.1" xmlns="http://www.w3.org/2000/svg" xmlns:xlink="http://www.w3.org/1999/xlink" x="0px" y="0px"
	 width="1650.165px" height="868.148px" viewBox="0 0 1650.165 868.148" enable-background="new 0 0 1650.165 868.148"
	 xml:space="preserve">
<g id="BG" display="none">
	<rect x="-114.712" y="-438.037" width="2044" height="1521"/>
	<rect x="-114.712" y="-438.037" width="2044" height="1521"/>
	<g id="Layer_24" display="inline">
	</g>
	<rect x="0.288" y="-0.037" display="inline" width="1650" height="868"/>
</g>
<g id="Layer_23">
</g>
<g id="Layer_22" display="none">
	<circle display="inline" fill="#0C242B" cx="883.096" cy="384.779" r="708.071"/>
</g>
<g id="Layer_4">
</g>
<g id="Layer_4_copy">
	<g id="Layer_7">
	</g>
	<g id="Layer_7_copy">
	</g>
	<g id="Layer_9">
	</g>
</g>
<g id="Layer_15_copy_3">
</g>
<g id="highlights">
</g>
<g id="Layer_14">
	<g id="Layer_15">
	</g>
	<g id="Layer_15_copy">
	</g>
	<g id="Layer_15_copy_2">
	</g>
	<g id="Layer_14_copy">
	</g>
</g>
<g id="Logo">
	<g id="Layer_19">
		<path fill="#9B7319" d="M0,800.817c0,0,1491.149-432.043,1650.165-780.078"/>
		<g id="Layer_19_copy">
			<path fill="#0D2028" d="M409.515,607.229c0,0,695.983-197.641,776.074-372.935"/>
		</g>
	</g>
	<g id="Layer_25" display="none">
		<g id="Layer_21" display="inline">
			<polyline fill="#16394C" points="543.584,20 902.844,818.148 1308.399,23.154 			"/>
		</g>
		<g id="Layer_21_copy" display="inline">
			<polyline fill="#0C242B" points="619.888,63.629 907.462,702.52 1232.096,66.154 			"/>
		</g>
	</g>
	<g id="Layer_25_copy" display="none">
		<g id="Layer_21_copy_2_1_" display="inline">
			<polyline fill="#16394C" points="543.584,-27 902.844,841.148 1308.399,-23.569 			"/>
		</g>
		<g id="Layer_21_copy_2" display="inline">
			<polyline fill="#0C242B" points="619.888,20.455 907.462,715.379 1232.096,23.202 			"/>
		</g>
	</g>
	<g id="centered_on_m">
		<g id="Layer_21_copy_3_1_">
			<polyline fill="#16394C" points="543.584,0 902.844,868.148 1308.399,3.431 			"/>
		</g>
		<g id="Layer_21_copy_3">
			<polyline fill="#0C242B" points="619.888,47.455 907.462,742.379 1232.096,50.202 			"/>
		</g>
	</g>
	<g id="centered_on_m_copy" display="none">
		<g id="Layer_21_copy_4_1_" display="inline">
			<polyline fill="#16394C" points="543.584,-27 945.124,841.148 1398.408,-23.569 			"/>
		</g>
		<g id="Layer_21_copy_4" display="inline">
			<polyline fill="#0C242B" points="628.868,20.455 950.286,715.379 1313.124,23.202 			"/>
		</g>
	</g>
</g>
<g id="Layer_1">
	<g id="Layer_8">
	</g>
	<text transform="matrix(0.9338 0 0 1 122.1426 -48.1113)" display="none"><tspan x="0" y="0" display="inline" fill="#FFFFFF" font-family="'Aldrich'" font-size="556.8428">SEIZE</tspan><tspan x="753.015" y="668.211" display="inline" fill="#FFFFFF" font-family="'Aldrich'" font-size="556.8428"> </tspan><tspan x="-251.891" y="1130.819" display="inline" fill="#FFFFFF" font-family="'Aldrich'" font-size="385.5065">COMMAND</tspan></text>
	<g display="none">
		<text transform="matrix(0.9734 0 0 1 -11.8638 -120.4395)" display="inline"><tspan x="0" y="0" fill="#FFFFFF" font-family="'Aldrich'" font-size="580.0275">SEIZE</tspan><tspan x="784.368" y="696.033" fill="#FFFFFF" font-family="'Aldrich'" font-size="580.0275"> </tspan></text>
	</g>
	<text transform="matrix(0.9063 0 0 1 795.0781 721.2227)" display="none"><tspan x="0" y="0" display="inline" fill="#FFFFFF" font-family="'Aldrich'" font-size="556.8428"> </tspan><tspan x="-1004.907" y="462.608" display="inline" fill="#FFFFFF" font-family="'Aldrich'" font-size="385.5065">COMMAND</tspan></text>
	<text transform="matrix(1.1496 0 0 1 108.6357 -69.3154)" display="none"><tspan x="0" y="0" display="inline" fill="#FFFFFF" font-family="'Aldrich'" font-size="443.6543">SEIZE</tspan><tspan x="599.951" y="532.385" display="inline" fill="#FFFFFF" font-family="'Aldrich'" font-size="443.6543"> </tspan><tspan x="-200.689" y="900.96" display="inline" fill="#FFFFFF" font-family="'Aldrich'" font-size="307.1452">COMMAND</tspan></text>
</g>
<g id="Layer_12">
</g>
</svg>
