<?xml version="1.0" encoding="utf-8"?>
<!-- Generator: Adobe Illustrator 16.0.0, SVG Export Plug-In . SVG Version: 6.00 Build 0)  -->
<!DOCTYPE svg PUBLIC "-//W3C//DTD SVG 1.1//EN" "http://www.w3.org/Graphics/SVG/1.1/DTD/svg11.dtd">
<svg version="1.1" xmlns="http://www.w3.org/2000/svg" xmlns:xlink="http://www.w3.org/1999/xlink" x="0px" y="0px" width="1969px"
	 height="1820.356px" viewBox="0 0 1969 1820.356" enable-background="new 0 0 1969 1820.356" xml:space="preserve">
<g id="BG" display="none">
	<rect y="91.449" width="2044" height="1521"/>
	<rect y="91.449" width="2044" height="1521"/>
	<g id="Layer_24" display="inline">
	</g>
	<rect y="1.449" display="inline" width="1969" height="1822"/>
</g>
<g id="Layer_23">
</g>
<g id="Layer_22" display="none">
	<circle display="inline" fill="#0C242B" cx="997.808" cy="914.266" r="708.071"/>
</g>
<g id="Layer_4">
</g>
<g id="Layer_4_copy">
	<g id="Layer_7">
	</g>
	<g id="Layer_7_copy">
	</g>
	<g id="Layer_9">
	</g>
</g>
<g id="Layer_15_copy_3">
</g>
<g id="highlights">
</g>
<g id="Layer_14">
	<g id="Layer_15">
	</g>
	<g id="Layer_15_copy">
	</g>
	<g id="Layer_15_copy_2">
	</g>
	<g id="Layer_14_copy">
	</g>
</g>
<g id="Logo">
	<g id="Layer_19">
		<path fill="#9B7319" d="M114.712,1330.304c0,0,1491.149-432.043,1650.165-780.078"/>
		<g id="Layer_19_copy">
			<path fill="#0D2028" d="M524.227,1136.715c0,0,695.983-197.641,776.074-372.935"/>
		</g>
	</g>
	<g id="Layer_25" display="none">
		<g id="Layer_21" display="inline">
			<polyline fill="#16394C" points="658.296,549.486 1017.556,1347.635 1423.111,552.641 			"/>
		</g>
		<g id="Layer_21_copy" display="inline">
			<polyline fill="#0C242B" points="734.6,593.115 1022.174,1232.006 1346.808,595.64 			"/>
		</g>
	</g>
	<g id="Layer_25_copy" display="none">
		<g id="Layer_21_copy_2_1_" display="inline">
			<polyline fill="#16394C" points="658.296,502.486 1017.556,1370.635 1423.111,505.917 			"/>
		</g>
		<g id="Layer_21_copy_2" display="inline">
			<polyline fill="#0C242B" points="734.6,549.941 1022.174,1244.865 1346.808,552.688 			"/>
		</g>
	</g>
	<g id="centered_on_m">
		<g id="Layer_21_copy_3_1_">
			<polyline fill="#16394C" points="658.296,529.486 1017.556,1397.635 1423.111,532.917 			"/>
		</g>
		<g id="Layer_21_copy_3">
			<polyline fill="#0C242B" points="734.6,576.941 1022.174,1271.865 1346.808,579.688 			"/>
		</g>
	</g>
	<g id="centered_on_m_copy" display="none">
		<g id="Layer_21_copy_4_1_" display="inline">
			<polyline fill="#16394C" points="658.296,502.486 1059.836,1370.635 1513.12,505.917 			"/>
		</g>
		<g id="Layer_21_copy_4" display="inline">
			<polyline fill="#0C242B" points="743.58,549.941 1064.998,1244.865 1427.836,552.688 			"/>
		</g>
	</g>
</g>
<g id="Layer_1">
	<g id="Layer_8">
	</g>
	<text transform="matrix(0.9338 0 0 1 236.8545 481.375)" display="none"><tspan x="0" y="0" display="inline" fill="#FFFFFF" font-family="'Aldrich'" font-size="556.8428">SEIZE</tspan><tspan x="753.015" y="668.211" display="inline" fill="#FFFFFF" font-family="'Aldrich'" font-size="556.8428"> </tspan><tspan x="-251.891" y="1130.819" display="inline" fill="#FFFFFF" font-family="'Aldrich'" font-size="385.5065">COMMAND</tspan></text>
	<g>
		<text transform="matrix(0.9734 0 0 1 102.8481 409.0469)"><tspan x="0" y="0" fill="#FFFFFF" font-family="'Aldrich'" font-size="580.0275">SEIZE</tspan><tspan x="784.368" y="696.033" fill="#FFFFFF" font-family="'Aldrich'" font-size="580.0275"> </tspan></text>
	</g>
	<text transform="matrix(0.9063 0 0 1 909.79 1334.709)"><tspan x="0" y="0" fill="#FFFFFF" font-family="'Aldrich'" font-size="556.8428"> </tspan><tspan x="-1004.907" y="462.608" fill="#FFFFFF" font-family="'Aldrich'" font-size="385.5065">COMMAND</tspan></text>
	<text transform="matrix(1.1496 0 0 1 223.3477 460.1709)" display="none"><tspan x="0" y="0" display="inline" fill="#FFFFFF" font-family="'Aldrich'" font-size="443.6543">SEIZE</tspan><tspan x="599.951" y="532.385" display="inline" fill="#FFFFFF" font-family="'Aldrich'" font-size="443.6543"> </tspan><tspan x="-200.689" y="900.96" display="inline" fill="#FFFFFF" font-family="'Aldrich'" font-size="307.1452">COMMAND</tspan></text>
</g>
<g id="Layer_12">
</g>
</svg>
